<svg width="120" height="16" viewBox="0 0 120 16" fill="none" xmlns="http://www.w3.org/2000/svg">
<path d="M16.8447 6.04549C16.7335 5.70742 16.4302 5.46806 16.0727 5.43609L11.1974 4.99853L9.27067 0.539087C9.12841 0.211457 8.80473 0 8.44445 0C8.08418 0 7.76037 0.211457 7.61902 0.539087L5.69226 4.99853L0.816171 5.43609C0.45873 5.4687 0.156052 5.70805 0.0442071 6.04549C-0.0669938 6.38357 0.0357027 6.75438 0.306038 6.98877L3.99139 10.1834L2.90477 14.9147C2.82526 15.2626 2.96185 15.6223 3.25383 15.831C3.41077 15.9437 3.59516 16 3.7802 16C3.9392 16 4.09834 15.9582 4.24046 15.8741L8.44445 13.3891L12.6477 15.8741C12.956 16.0563 13.3437 16.0396 13.6351 15.831C13.9271 15.6223 14.0636 15.2626 13.9841 14.9147L12.8975 10.1834L16.5829 6.98877C16.8531 6.75438 16.9559 6.38433 16.8447 6.04549Z" fill="#F4C22F"/>
<path d="M119.956 6.04549C119.845 5.70742 119.541 5.46806 119.184 5.43609L114.309 4.99853L112.382 0.539087C112.239 0.211457 111.916 0 111.556 0C111.195 0 110.871 0.211457 110.73 0.539087L108.803 4.99853L103.927 5.43609C103.57 5.4687 103.267 5.70805 103.155 6.04549C103.044 6.38357 103.147 6.75438 103.417 6.98877L107.102 10.1834L106.016 14.9147C105.936 15.2626 106.073 15.6223 106.365 15.831C106.522 15.9437 106.706 16 106.891 16C107.05 16 107.209 15.9582 107.352 15.8741L111.556 13.3891L115.759 15.8741C116.067 16.0563 116.455 16.0396 116.746 15.831C117.038 15.6223 117.175 15.2626 117.095 14.9147L116.009 10.1834L119.694 6.98877C119.964 6.75438 120.067 6.38433 119.956 6.04549Z" fill="#F4C22F"/>
<path d="M42.6225 6.04549C42.5113 5.70742 42.208 5.46806 41.8506 5.43609L36.9753 4.99853L35.0485 0.539087C34.9062 0.211457 34.5826 0 34.2223 0C33.862 0 33.5382 0.211457 33.3968 0.539087L31.4701 4.99853L26.594 5.43609C26.2366 5.4687 25.9339 5.70805 25.822 6.04549C25.7108 6.38357 25.8135 6.75438 26.0839 6.98877L29.7692 10.1834L28.6826 14.9147C28.6031 15.2626 28.7397 15.6223 29.0317 15.831C29.1886 15.9437 29.373 16 29.558 16C29.717 16 29.8762 15.9582 30.0183 15.8741L34.2223 13.3891L38.4255 15.8741C38.7338 16.0563 39.1216 16.0396 39.4129 15.831C39.7049 15.6223 39.8415 15.2626 39.762 14.9147L38.6754 10.1834L42.3607 6.98877C42.6309 6.75438 42.7337 6.38433 42.6225 6.04549Z" fill="#F4C22F"/>
<path d="M68.4002 6.04549C68.289 5.70742 67.9857 5.46806 67.6283 5.43609L62.753 4.99853L60.8262 0.539087C60.684 0.211457 60.3603 0 60 0C59.6397 0 59.3159 0.211457 59.1746 0.539087L57.2478 4.99853L52.3717 5.43609C52.0143 5.4687 51.7116 5.70805 51.5997 6.04549C51.4885 6.38357 51.5912 6.75438 51.8616 6.98877L55.5469 10.1834L54.4603 14.9147C54.3808 15.2626 54.5174 15.6223 54.8094 15.831C54.9663 15.9437 55.1507 16 55.3357 16C55.4947 16 55.6539 15.9582 55.796 15.8741L60 13.3891L64.2032 15.8741C64.5116 16.0563 64.8993 16.0396 65.1906 15.831C65.4826 15.6223 65.6192 15.2626 65.5397 14.9147L64.4531 10.1834L68.1384 6.98877C68.4086 6.75438 68.5114 6.38433 68.4002 6.04549Z" fill="#F4C22F"/>
<path d="M94.1781 6.04549C94.0669 5.70742 93.7636 5.46806 93.4061 5.43609L88.5308 4.99853L86.604 0.539087C86.4618 0.211457 86.1381 0 85.7778 0C85.4176 0 85.0937 0.211457 84.9524 0.539087L83.0256 4.99853L78.1495 5.43609C77.7921 5.4687 77.4894 5.70805 77.3776 6.04549C77.2664 6.38357 77.3691 6.75438 77.6394 6.98877L81.3248 10.1834L80.2381 14.9147C80.1586 15.2626 80.2952 15.6223 80.5872 15.831C80.7441 15.9437 80.9285 16 81.1136 16C81.2726 16 81.4317 15.9582 81.5738 15.8741L85.7778 13.3891L89.981 15.8741C90.2894 16.0563 90.6771 16.0396 90.9685 15.831C91.2604 15.6223 91.397 15.2626 91.3175 14.9147L90.2309 10.1834L93.9162 6.98877C94.1865 6.75438 94.2893 6.38433 94.1781 6.04549Z" fill="#F4C22F"/>
</svg>
