<?xml version="1.0" encoding="utf-8"?><svg viewBox="0 0 120 80" xmlns="http://www.w3.org/2000/svg" xmlns:xlink="http://www.w3.org/1999/xlink"><style>:root>svg{display:none}:root>svg:target{display:block}</style><svg viewBox="0 0 24 24" id="cart" xmlns="http://www.w3.org/2000/svg"><path d="M4.956 21.474a2.48 2.48 0 0 0 2.477 2.477 2.48 2.48 0 0 0 2.478-2.477 2.48 2.48 0 0 0-2.478-2.478 2.48 2.48 0 0 0-2.477 2.478Zm3.303 0c0 .455-.37.826-.826.826a.827.827 0 0 1-.826-.826.827.827 0 0 1 1.652 0Zm11.563 0a2.48 2.48 0 0 0-2.478-2.478 2.48 2.48 0 0 0-2.478 2.478 2.48 2.48 0 0 0 2.478 2.477 2.48 2.48 0 0 0 2.478-2.477Zm-3.304 0a.827.827 0 0 1 1.652 0 .828.828 0 0 1-.826.826.827.827 0 0 1-.826-.826ZM2.56 1.652l1.418 13.473a2.473 2.473 0 0 0 2.465 2.219h12.87c1.16 0 2.18-.825 2.423-1.96l1.984-9.257a1.642 1.642 0 0 0-.331-1.384 1.646 1.646 0 0 0-1.286-.614H4.483L4.124.74a.826.826 0 0 0-.82-.74H.826a.826.826 0 0 0 0 1.652H2.56Zm19.543 4.13-1.983 9.257a.832.832 0 0 1-.808.653H6.442a.824.824 0 0 1-.821-.74l-.965-9.17h17.447Z"/></svg><svg viewBox="0 0 7 12" id="chevron-right" xmlns="http://www.w3.org/2000/svg"><path d="M.823 12a.72.72 0 0 1-.45-.147.846.846 0 0 1-.29-.41.939.939 0 0 1-.023-.518.867.867 0 0 1 .255-.437l4.726-4.474L.315 1.54a.83.83 0 0 1-.21-.26.917.917 0 0 1-.071-.678.883.883 0 0 1 .152-.305.787.787 0 0 1 .25-.213.714.714 0 0 1 .882.164L6.73 5.365a.85.85 0 0 1 .2.292.93.93 0 0 1 0 .715.85.85 0 0 1-.2.292l-5.41 5.12A.733.733 0 0 1 .822 12Z"/></svg><svg viewBox="0 0 20 20" id="clock" xmlns="http://www.w3.org/2000/svg"><path d="M10 20c5.513 0 10-4.487 10-10S15.513 0 10 0 0 4.487 0 10s4.487 10 10 10Zm0-18.667c4.78 0 8.667 3.887 8.667 8.667 0 4.78-3.887 8.667-8.667 8.667-4.78 0-8.667-3.887-8.667-8.667 0-4.78 3.887-8.667 8.667-8.667Z"/><path d="M12.917 13.187a.663.663 0 0 0 .937-.103.667.667 0 0 0-.104-.937L10.667 9.68V4.667c0-.367-.3-.667-.667-.667-.367 0-.667.3-.667.667V10c0 .203.094.393.25.52l3.334 2.667Z"/></svg><svg viewBox="0 0 35 35" id="facebook" xmlns="http://www.w3.org/2000/svg"><path d="M35 17.5C35 7.834 27.166 0 17.5 0S0 7.834 0 17.5 7.834 35 17.5 35c.102 0 .205 0 .308-.007V21.376h-3.76v-4.382h3.76v-3.226c0-3.74 2.283-5.777 5.619-5.777 1.6 0 2.973.116 3.37.171v3.91H24.5c-1.811 0-2.167.862-2.167 2.126v2.79h4.34l-.567 4.381h-3.773v12.954C29.648 32.225 35 25.491 35 17.5Z"/></svg><svg viewBox="0 0 30 27" id="heart" xmlns="http://www.w3.org/2000/svg"><path d="M15 27c-.427 0-.839-.157-1.16-.44a347.795 347.795 0 0 0-3.411-2.969l-.005-.005C7.4 20.981 4.79 18.731 2.975 16.514.945 14.037 0 11.687 0 9.12c0-2.493.845-4.794 2.38-6.478A8.025 8.025 0 0 1 8.38 0c1.732 0 3.318.554 4.714 1.646A9.708 9.708 0 0 1 15 3.659a9.709 9.709 0 0 1 1.906-2.013C18.302.554 19.888 0 21.619 0c2.317 0 4.448.938 6.001 2.642C29.155 4.326 30 6.627 30 9.12c0 2.567-.945 4.917-2.975 7.394-1.816 2.217-4.426 4.467-7.448 7.072-1.033.89-2.203 1.9-3.418 2.974-.32.284-.732.44-1.159.44ZM8.38 1.778c-1.82 0-3.492.735-4.708 2.07C2.437 5.201 1.757 7.074 1.757 9.12c0 2.16.793 4.09 2.571 6.26 1.72 2.098 4.275 4.302 7.235 6.854l.006.004c1.035.892 2.208 1.904 3.428 2.984a411.973 411.973 0 0 1 3.44-2.989c2.96-2.552 5.516-4.755 7.235-6.853 1.778-2.17 2.57-4.1 2.57-6.26 0-2.045-.68-3.918-1.914-5.273a6.295 6.295 0 0 0-4.709-2.07c-1.333 0-2.557.43-3.638 1.275-.964.754-1.635 1.707-2.028 2.374a1.098 1.098 0 0 1-.953.547c-.394 0-.75-.204-.953-.547-.393-.667-1.064-1.62-2.028-2.374-1.08-.845-2.305-1.274-3.638-1.274Z"/></svg><svg viewBox="0 0 35 35" id="instagram" xmlns="http://www.w3.org/2000/svg"><path d="M20.85 17.5a3.35 3.35 0 1 1-6.7 0 3.35 3.35 0 0 1 6.7 0Z"/><path d="M25.334 11.574a3.114 3.114 0 0 0-.752-1.156 3.112 3.112 0 0 0-1.156-.752c-.354-.137-.886-.3-1.865-.345-1.06-.049-1.378-.06-4.061-.06s-3.001.011-4.06.06c-.98.044-1.513.208-1.866.345a3.11 3.11 0 0 0-1.156.752c-.334.324-.59.719-.752 1.156-.137.354-.301.886-.346 1.866-.048 1.06-.058 1.377-.058 4.06s.01 3.001.058 4.061c.045.98.209 1.512.346 1.866.161.436.418.831.752 1.155.324.334.719.59 1.155.752.354.138.887.301 1.866.346 1.06.048 1.377.058 4.06.058 2.684 0 3.002-.01 4.061-.058.98-.045 1.512-.208 1.866-.346a3.328 3.328 0 0 0 1.908-1.907c.137-.354.3-.886.346-1.866.048-1.06.058-1.378.058-4.06 0-2.684-.01-3.002-.058-4.061-.045-.98-.209-1.512-.346-1.866ZM17.5 22.66a5.16 5.16 0 1 1 0-10.32 5.16 5.16 0 0 1 0 10.32Zm5.364-9.318a1.206 1.206 0 1 1 0-2.412 1.206 1.206 0 0 1 0 2.412Z"/><path d="M17.5 0C7.836 0 0 7.836 0 17.5 0 27.163 7.836 35 17.5 35 27.163 35 35 27.163 35 17.5 35 7.836 27.163 0 17.5 0Zm9.988 21.643c-.048 1.07-.218 1.8-.467 2.44a5.139 5.139 0 0 1-2.939 2.938c-.639.248-1.37.418-2.439.467-1.071.05-1.414.06-4.143.06s-3.071-.01-4.143-.06c-1.07-.049-1.8-.218-2.439-.467a4.923 4.923 0 0 1-1.78-1.159 4.924 4.924 0 0 1-1.159-1.78c-.248-.639-.418-1.37-.467-2.439-.05-1.072-.06-1.414-.06-4.143s.01-3.071.06-4.143c.048-1.07.218-1.8.467-2.44a4.923 4.923 0 0 1 1.159-1.779 4.922 4.922 0 0 1 1.78-1.16c.639-.248 1.37-.417 2.439-.466 1.072-.05 1.414-.06 4.143-.06s3.071.01 4.143.06c1.07.049 1.8.218 2.44.467.67.252 1.277.648 1.78 1.159a4.94 4.94 0 0 1 1.158 1.78c.249.639.419 1.37.467 2.439.05 1.072.06 1.414.06 4.143s-.01 3.071-.06 4.143Z"/></svg><svg viewBox="0 0 35 35" id="linkedin" xmlns="http://www.w3.org/2000/svg"><path d="M17.5 0C7.836 0 0 7.836 0 17.5 0 27.163 7.836 35 17.5 35 27.163 35 35 27.163 35 17.5 35 7.836 27.163 0 17.5 0Zm-5.085 26.455H8.153V13.633h4.262v12.822Zm-2.131-14.573h-.028c-1.43 0-2.355-.985-2.355-2.215 0-1.259.953-2.216 2.411-2.216 1.458 0 2.355.957 2.383 2.216 0 1.23-.925 2.215-2.411 2.215Zm17.499 14.573H23.52v-6.86c0-1.724-.617-2.9-2.159-2.9-1.177 0-1.878.794-2.187 1.56-.112.273-.14.656-.14 1.04v7.16h-4.262s.056-11.62 0-12.822h4.262v1.815c.567-.874 1.58-2.116 3.841-2.116 2.804 0 4.907 1.832 4.907 5.77v7.353Z"/></svg><svg viewBox="0 0 94 80" id="logo" xmlns="http://www.w3.org/2000/svg"><path d="M27.521 17.51c.143.034.27.115.36.23a2.6 2.6 0 0 1 .275.56l3.43 10.017.028.08h.559l1.226-4.278 1.356 4.277h.584l3.015-10.937h.952v-.62h-3.13v.62h.119c.952 0 .952.436.952.58v.336l-2.002 7.66-1.348-4.061 1.287-4.515h.837v-.62h-2.889v.61h.108c.242.006.479.071.69.19a.476.476 0 0 1 .161.39 2.9 2.9 0 0 1-.032.465l-.682 2.293-1.136-3.339h.743v-.61h-2.762v.621h.12a1.11 1.11 0 0 1 1.103.84l1.442 4.46-.938 3.29-2.884-8.59h1.01v-.62h-3.39v.62h.119a3.8 3.8 0 0 1 .717.05Zm15.687 5.431c-.603-.02-1.2.112-1.739.382a2.384 2.384 0 0 0-1.081 1.01 2.59 2.59 0 0 0-.361 1.313c-.001.414.104.821.307 1.182a2.279 2.279 0 0 0 2.127 1.277 4.08 4.08 0 0 0 1.749-.407v.183h1.947v-.627h-.119a2.383 2.383 0 0 1-.721-.087c-.09-.025-.191-.086-.191-.31v-4.54a1.875 1.875 0 0 0-.289-.944c-.21-.333-.5-.607-.843-.797a2.211 2.211 0 0 0-1.136-.3 2.887 2.887 0 0 0-1.028.163 2.11 2.11 0 0 0-.649.36l-.025.026a1.85 1.85 0 0 0-.14.111l-.149.123v-1.035h-.624v3.39h.624v-.12c.005-.373.089-.742.245-1.081.147-.366.384-.688.69-.938.25-.232.578-.36.919-.36.242.004.475.089.663.241.23.183.412.421.527.693.125.275.191.573.194.876a2.42 2.42 0 0 1 0 .295l-.897-.079Zm.995 3.862a2.423 2.423 0 0 1-1.558.602 1.69 1.69 0 0 1-1.208-.48 1.976 1.976 0 0 1-.57-1.38 1.876 1.876 0 0 1 .27-1.032 1.76 1.76 0 0 1 .722-.649c.29-.139.608-.215.93-.223a1.577 1.577 0 0 1 1.443.63l-.03 2.532Zm4.136-7.882c0-1.687.454-2.524 1.388-2.524.449.015.889.131 1.287.34v1.903h.318a3.595 3.595 0 0 0-.026.4v1.511h-.793v.758h.793v5.942h-.793v.628h2.726v-.628h-.122c-.361 0-.574-.065-.65-.19a1.249 1.249 0 0 1-.133-.61v-5.142h1.561v-.758h-1.561v-1.63c0-1.687.454-2.524 1.385-2.524.449.015.889.13 1.287.34v.223l-.635.779.44.425.21-.209v.7h.331v8.596h-.793v.628h2.589v-.628h-.112a.962.962 0 0 1-.512-.104c-.068-.05-.144-.195-.144-.566v-10.25l.458-.613-.631-.216-.577.721v-.7h-.624v.242a5.265 5.265 0 0 0-.898-.072 2.424 2.424 0 0 0-2.11 1.02c-.14.216-.26.445-.36.682v-1.871h-.62v.241c-.298-.05-.6-.073-.902-.072a2.409 2.409 0 0 0-2.106 1.02 4 4 0 0 0-.695 2.34v1.497h-.797v.758h.793v5.942h-.793v.628h2.726v-.628h-.12c-.36 0-.576-.065-.652-.19a1.291 1.291 0 0 1-.133-.61v-5.142H49.9v-.758h-1.561v-1.63Zm10.857 8.632a3.668 3.668 0 0 0 1.745.458h.231a4.82 4.82 0 0 0 2.485-.722 4.013 4.013 0 0 0 1.442-1.961l.05-.116-.63-.216-.04.105a3.245 3.245 0 0 1-1.212 1.489 4.13 4.13 0 0 1-1.846.674.467.467 0 0 0-.137.029 2.61 2.61 0 0 1-1.424-.44 3.606 3.606 0 0 1-1.165-1.215 3.133 3.133 0 0 1-.437-1.58 3.27 3.27 0 0 1 .264-1.179h6.516l-.044-.151a2.597 2.597 0 0 0-.634-1.093 3.605 3.605 0 0 0-1.197-.876 4.116 4.116 0 0 0-3.354.036 4.278 4.278 0 0 0-1.569 1.168 3.628 3.628 0 0 0-.858 1.89c.006.098.006.197 0 .296a3.354 3.354 0 0 0 .498 2.16c.327.518.78.946 1.316 1.244Zm-.112-5.449a3.076 3.076 0 0 1 2.196-.8c.084.025.17.046.256.06l.332.084c.083.025.18.054.278.09l.263.076.191.057c.285.199.483.336.613.433h-4.129ZM34.127 39.972a4.328 4.328 0 0 0-2.366-.63 8.32 8.32 0 0 0-2.96.59v-.59h-2.19v.641h.116c.286-.024.573.043.819.191a.962.962 0 0 1 .23.721v8.929h-1.034v.624h3.49v-.624h-.119a.992.992 0 0 0-.241.025 1.86 1.86 0 0 1-.217 0c-.764 0-.854-.328-.854-.577V48.27a7.573 7.573 0 0 0 2.21.497 5.208 5.208 0 0 0 2.77-.72 4.836 4.836 0 0 0 1.745-1.872c.371-.74.566-1.556.57-2.384a5.088 5.088 0 0 0-.487-2.185 3.815 3.815 0 0 0-1.482-1.634Zm-2.885 8.063a3.462 3.462 0 0 1-2.427-.998v-6.098a2.4 2.4 0 0 1 .995-.639c.46-.18.95-.27 1.443-.263a3.883 3.883 0 0 1 2.47.858c.721.57 1.147 1.443 1.284 2.63 0 .053 0 .187.04.36.007.12.007.24 0 .36a3.454 3.454 0 0 1-.545 1.847 4.086 4.086 0 0 1-1.443 1.399 3.506 3.506 0 0 1-1.831.544h.014Zm11.118 1.7c-.09-.029-.192-.09-.192-.31v-4.508a1.9 1.9 0 0 0-.288-.94 2.271 2.271 0 0 0-.804-.787c-.34-.2-.73-.304-1.125-.3a2.952 2.952 0 0 0-1.028.163 2.15 2.15 0 0 0-.642.36l-.195.16-.115.097v-1.035h-.62v3.371h.62v-.115a2.63 2.63 0 0 1 .242-1.082 2.29 2.29 0 0 1 .681-.934c.248-.23.574-.36.913-.36.24.004.472.087.66.238.228.182.409.417.526.685.125.274.191.571.195.872.005.099.005.198 0 .296l-.877-.083a3.645 3.645 0 0 0-1.73.36 2.41 2.41 0 0 0-1.082 1.01 2.572 2.572 0 0 0-.36 1.302c-.004.41.1.814.298 1.172.202.38.496.702.855.938.384.22.82.336 1.262.335a4.031 4.031 0 0 0 1.734-.407v.184h1.93v-.624h-.12a2.454 2.454 0 0 1-.739-.058Zm-2.496-3.502a1.58 1.58 0 0 1 1.414.624v2.525a2.427 2.427 0 0 1-1.544.598 1.702 1.702 0 0 1-1.2-.48 1.937 1.937 0 0 1-.563-1.37c-.014-.36.08-.715.27-1.02a1.67 1.67 0 0 1 .7-.65c.288-.139.603-.216.923-.227Zm9.142 3.508s-.072-.047-.072-.317v-4.068a2.567 2.567 0 0 0-.361-1.403 1.987 1.987 0 0 0-.837-.72 2.113 2.113 0 0 0-1.803 0c-.173.1-.407.259-.7.468v-.137l.43-.721-.45-.235-1.83 2.384.452.256.36-.469v5.049h-.652v.623h2.704v-.623h-.09a1.375 1.375 0 0 1-.721-.152c-.127-.072-.184-.249-.184-.516v-3.544a2.142 2.142 0 0 1 .41-1.385 1.168 1.168 0 0 1 .92-.472c.226 0 .446.075.624.212.218.16.39.374.498.62.142.323.21.673.202 1.025v4.212h-.804v.623h2.722v-.623h-.115a1.661 1.661 0 0 1-.703-.087Zm5.779-.776a1.757 1.757 0 0 1-1.604.985c-.722-.083-1.064-.833-1.064-2.236V43.92h1.413v-.771h-1.413v-3.293H51.8l-.722.862v2.43h-.786v.772h.786v4.328a2.407 2.407 0 0 0 .678 1.767 2.26 2.26 0 0 0 1.641.685c.38.018.757-.077 1.082-.274.242-.148.438-.36.566-.613.109-.175.175-.373.195-.577v-.166l-.422-.213-.033.108Zm8.994-5.675v.624h.118c.227-.014.454.012.671.075.12.069.148.282.148.451a8.19 8.19 0 0 1-.472 2.03c-.246.761-.44 1.295-.58 1.609l-1.552-4.165h.722v-.624h-2.647v-.656h-.638v.577a1.871 1.871 0 0 0-.783-.152 1.89 1.89 0 0 0-1.468.653l.552-.721-.425-.419-1.98 2.243.433.437.396-.397v4.955h-.786v.623h2.705v-.623h-.116c-.533 0-.779-.213-.779-.668v-4.395c.404-.65.844-.974 1.299-.974a.695.695 0 0 1 .634.267c.17.202.263.457.264.721.038.377.056.757.054 1.136v.119h.638v-2.08c.595 0 .966.245 1.118.703l1.803 4.936a13.435 13.435 0 0 1-.822 1.763 18.579 18.579 0 0 1-1.107 1.688c-.451.566-.682.65-.783.65a.093.093 0 0 1-.069-.033l-.035-.03h-.545v1.443h.13a2.453 2.453 0 0 0 1.402-.721 7.11 7.11 0 0 0 1.194-1.569 20.11 20.11 0 0 0 1.064-2.279c.339-.822.721-1.871 1.154-3.108l1.143-3.454h.819V43.3l-2.875-.011Z"/><path d="M91.628 48.68a47.82 47.82 0 0 0-9.177 4.043c.411-.869.793-1.749 1.143-2.654 2.712-.292 8.434-1.9 9.682-10.237 0 0-3.577 1.172-8.182 5.438.198-.815.36-1.645.509-2.481 2.603-.992 7.64-4.053 6.952-12.733 0 0-3.12 1.803-6.39 7.284 0-.436.032-.873.032-1.313 0-.62-.025-1.23-.053-1.842 2.21-1.49 6.422-5.481 4.25-13.39a57.79 57.79 0 0 0-4.9 7.83c-.17-.873-.36-1.728-.584-2.583 1.634-1.676 4.88-6.191 1.273-13.06 0 0-1.972 3.54-2.546 9.04a40.47 40.47 0 0 0-1.29-3.011c1.06-1.94 2.78-6.83-1.623-13.44a33.762 33.762 0 0 0-.981 8.853 36.996 36.996 0 0 0-1.695-2.358c.44-2.301 1.031-8.51-4.428-12.066 0 0-.89 2.059.721 7.933-.191-.19-.4-.36-.598-.552A14.027 14.027 0 0 0 62.744.793S64.771 5.77 73.62 9.776c0 0-5.146-1.544-8.233.617 0 0 6.462 4.37 11.63 2.884.584.768 1.15 1.554 1.673 2.362-1.89-.52-5.827-1.406-8.77-.804 0 0 5.964 5.586 11.179 5.175.45.962.865 1.94 1.23 2.938-1.97-1.006-5.994-2.783-8.705-2.163 0 0 5.048 6.458 9.905 6.05.358 1.447.63 2.914.815 4.393 0 0 0 .036-.022.054-.021.018-4.27-5.863-9.09-5.146 0 0 2.885 6.404 9.375 8.655 0 .41.036.822.036 1.236 0 .985-.05 1.959-.126 2.925-1.038-1.77-4.082-6.44-7.406-6.938 0 0-1.115 4.475 6.85 11.096a43.918 43.918 0 0 1-.72 3.115c-.75-1.677-3.112-6.36-6.635-8.041 0 0-1.006 6.357 5.365 11.773a37.057 37.057 0 0 1-1.803 3.913c-.115-1.428-.92-8.142-5.524-9.516 0 0-.584 7.77 3.729 12.458a37.478 37.478 0 0 1-2.301 3.116c-.065-1.46-.545-8.496-3.487-10.432 0 0-2.477 4.77.844 13.324a38.33 38.33 0 0 1-3.534 3.083l-.292.058s3.447-7.511-.797-11.42c0 0-3.09 2.477-1.27 13.039a37.283 37.283 0 0 1-3.306 1.929 16.783 16.783 0 0 0 .844-10.854s-5.33 1.688-4.483 12.502a37.596 37.596 0 0 1-27.906-.224c.76-10.616-4.497-12.26-4.497-12.26a16.757 16.757 0 0 0 .681 10.457 37.642 37.642 0 0 1-3.083-1.882c1.692-10.277-1.33-12.697-1.33-12.697-3.639 3.35-1.627 9.343-.977 10.988a37.766 37.766 0 0 1-3.484-3.137c3.076-8.294.682-12.895.682-12.895-2.615 1.716-3.285 7.442-3.448 9.736a31.678 31.678 0 0 1-2.004-2.806c3.94-4.716 3.39-12.072 3.39-12.072-3.913 1.171-5.05 6.223-5.41 8.567a36.2 36.2 0 0 1-1.486-3.35c5.889-5.33 4.926-11.395 4.926-11.395-3.05 1.454-5.236 5.2-6.245 7.248a38.905 38.905 0 0 1-.592-2.769c7.414-6.383 6.347-10.663 6.347-10.663-2.885.43-5.546 3.988-6.884 6.087a35.988 35.988 0 0 1-.061-2.073c0-.487 0-.97.029-1.443 6.09-2.42 8.79-8.438 8.79-8.438-3.66-.534-7.027 2.748-8.412 4.331.18-1.221.42-2.423.721-3.606 4.688-.112 9.322-6.065 9.322-6.065-2.409-.57-5.86.779-7.98 1.803.33-.866.69-1.72 1.082-2.56 5.07 0 10.608-5.197 10.608-5.197-2.614-.537-6.004.108-8.059.617.458-.696.938-1.385 1.442-2.056 5.081 1.118 11.146-2.985 11.146-2.985-2.697-1.886-6.959-.949-7.998-.682l.08-.083C28.559 5.687 30.56.82 30.56.82a14.103 14.103 0 0 0-11.74 7.773l-.148.152c1.947-6.488.98-8.745.98-8.745-6.029 3.927-4.687 11.096-4.301 12.653a38.275 38.275 0 0 0-1.847 2.73 34.193 34.193 0 0 0-.944-9.826c-4.908 7.374-2.2 12.62-1.295 13.987a40.217 40.217 0 0 0-1.507 3.78C9.394 17.081 7.1 12.981 7.1 12.981c-4.002 7.648.45 12.372 1.731 13.511a38.162 38.162 0 0 0-.624 3.015c-1.994-4.327-5.322-8.723-5.322-8.723C.508 29.439 5.77 33.405 7.702 34.53c-.021.494-.036.988-.036 1.486 0 .815.036 1.626.087 2.434C4.263 32.07.72 30.045.72 30.045c-.753 9.437 5.272 12.232 7.573 12.95.18 1.016.407 2.019.67 3.01C3.984 41.126 0 39.821 0 39.821c1.349 9.015 7.933 10.169 10.284 10.284a39.237 39.237 0 0 0 1.345 3.087 47.887 47.887 0 0 0-9.981-4.511c2.037 9.047 10.097 8.842 12.3 8.614a39.245 39.245 0 0 0 1.724 2.445C10.58 58.298 4.63 57.937 4.63 57.937c4.655 7.753 12.044 6.275 14.327 5.586.7.721 1.42 1.396 2.163 2.052-5.293-.52-11.351.386-11.351.386 6.01 7.147 13.201 3.815 15.264 2.625a39.4 39.4 0 0 0 4.175 2.452c-8.535-.977-13.05 2.438-13.05 2.438 8.208 5.437 14.23.591 15.96-1.111a38.901 38.901 0 0 0 8.777 2.445c.098.133.069.263-.194.36-.217.05-.43.094-.635.148h-.04a14.93 14.93 0 0 0-4.871 1.85v2.647c11.178-6.563 21.636-.3 21.636-.3V77.05a25.2 25.2 0 0 0-4.59-1.695s-.693-.22-.754-.36a39.086 39.086 0 0 0 9.895-2.485c1.922 1.803 7.835 6.228 15.794.952 0 0-4.259-3.245-12.333-2.524a38.627 38.627 0 0 0 3.758-2.2c2.401 1.295 9.22 4.025 14.957-2.798 0 0-5.582-.836-10.713-.44a39.145 39.145 0 0 0 1.994-1.868c2.694.7 9.487 1.576 13.861-5.715a62.93 62.93 0 0 0-10.29 1.593 41.817 41.817 0 0 0 1.525-2.196c2.762.166 9.859-.26 11.752-8.655"/></svg><svg viewBox="0 0 19 14" id="mail" xmlns="http://www.w3.org/2000/svg"><path d="M11.088 9.106A2.888 2.888 0 0 1 9.5 9.58a2.887 2.887 0 0 1-1.588-.474L.127 4A2.834 2.834 0 0 1 0 3.91v8.368C0 13.24.791 14 1.75 14h15.5c.976 0 1.75-.779 1.75-1.72V3.91c-.041.03-.084.06-.127.089l-7.785 5.106Z"/><path d="M.744 3.088 8.53 8.195a1.767 1.767 0 0 0 1.94 0l7.786-5.107c.466-.305.744-.816.744-1.368C19 .772 18.216 0 17.252 0H1.748C.784 0 0 .772 0 1.721c0 .55.278 1.062.744 1.367Z"/></svg><svg viewBox="0 0 35 35" id="next" xmlns="http://www.w3.org/2000/svg"><path d="M17.5 0C7.835 0 0 7.835 0 17.5S7.835 35 17.5 35 35 27.165 35 17.5C34.99 7.84 27.16.01 17.5 0Zm0 33.25c-8.7 0-15.75-7.052-15.75-15.75C1.75 8.8 8.8 1.75 17.5 1.75c8.698 0 15.75 7.051 15.75 15.75-.01 8.694-7.056 15.74-15.75 15.75Z"/><path d="M15.451 10.716a.875.875 0 1 0-1.152 1.318l6.247 5.466-6.247 5.466a.875.875 0 1 0 1.152 1.318l7-6.125a.875.875 0 0 0 0-1.318l-7-6.125Z"/></svg><svg viewBox="0 0 17 17" id="phone" xmlns="http://www.w3.org/2000/svg"><path d="m16.554 12.476-2.377-2.372c-.85-.847-2.293-.508-2.632.593-.255.763-1.104 1.186-1.868 1.017-1.698-.424-3.99-2.627-4.415-4.406-.255-.763.254-1.61 1.018-1.864 1.104-.34 1.444-1.78.595-2.627L4.497.445c-.679-.593-1.698-.593-2.292 0L.592 2.055c-1.614 1.694.17 6.185 4.16 10.167s8.49 5.846 10.189 4.152l1.613-1.61c.595-.678.595-1.695 0-2.288Z"/></svg><svg viewBox="0 0 36 35" id="pinterest" xmlns="http://www.w3.org/2000/svg"><path fill-rule="evenodd" clip-rule="evenodd" d="M18.044 0C8.09 0 0 7.806 0 17.5 0 27.194 8.089 35 18.044 35 28 35 36 27.194 36 17.5 36 7.806 28 0 18.044 0Zm1.423 22.218c-1.334-.086-1.867-.772-2.934-1.372-.533 2.916-1.244 5.661-3.289 7.12-.622-4.375.89-7.635 1.6-11.152-1.244-1.973.178-6.09 2.756-5.062 3.2 1.202-2.756 7.55 1.244 8.321 4.267.858 5.956-7.12 3.378-9.693C18.4 6.69 11.2 10.294 12.09 15.613c.267 1.287 1.6 1.715.622 3.517-2.489-.515-3.2-2.402-3.111-4.804.178-4.032 3.733-6.863 7.378-7.292 4.533-.514 8.8 1.63 9.333 5.748.711 4.718-2.044 9.78-6.844 9.436Z"/></svg><svg viewBox="0 0 14 14" id="search" xmlns="http://www.w3.org/2000/svg"><path d="M6.046 0a6.03 6.03 0 0 1 5.451 3.436 6.04 6.04 0 0 1-.758 6.402l3.067 3.069a.637.637 0 1 1-.899.899L9.84 10.737A6.037 6.037 0 0 1 .345 8.056 6.045 6.045 0 0 1 3.268.674 6.036 6.036 0 0 1 6.046 0Zm0 10.812a4.749 4.749 0 0 0 3.349-1.38c.006-.006.009-.017.016-.024.007-.007.017-.01.024-.015a4.768 4.768 0 0 0-5.232-7.745 4.765 4.765 0 0 0-2.83 5.338 4.767 4.767 0 0 0 4.673 3.826Z"/></svg><svg viewBox="0 0 20 23" id="share" xmlns="http://www.w3.org/2000/svg"><path d="M16.239 15.47a3.75 3.75 0 0 0-2.782 1.234l-6.192-3.839a3.746 3.746 0 0 0 0-2.73l6.192-3.839A3.75 3.75 0 0 0 16.24 7.53 3.767 3.767 0 0 0 20 3.764 3.767 3.767 0 0 0 16.239 0a3.767 3.767 0 0 0-3.504 5.13L6.543 8.968A3.751 3.751 0 0 0 3.76 7.735 3.767 3.767 0 0 0 0 11.5a3.767 3.767 0 0 0 3.761 3.765 3.75 3.75 0 0 0 2.782-1.233l6.192 3.838A3.767 3.767 0 0 0 16.239 23 3.767 3.767 0 0 0 20 19.235a3.767 3.767 0 0 0-3.761-3.764Zm-2.39-11.705a2.394 2.394 0 0 1 2.39-2.392 2.394 2.394 0 0 1 2.39 2.392 2.394 2.394 0 0 1-2.39 2.392 2.394 2.394 0 0 1-2.39-2.392ZM3.761 13.892a2.394 2.394 0 0 1-2.39-2.392 2.394 2.394 0 0 1 2.39-2.392 2.393 2.393 0 0 1 2.39 2.392 2.393 2.393 0 0 1-2.39 2.392Zm10.088 5.343a2.394 2.394 0 0 1 2.39-2.392 2.394 2.394 0 0 1 2.39 2.392 2.394 2.394 0 0 1-2.39 2.392 2.394 2.394 0 0 1-2.39-2.392Z"/></svg><svg viewBox="0 0 120 16" id="stars" xmlns="http://www.w3.org/2000/svg"><path d="M16.845 6.045a.894.894 0 0 0-.772-.609L11.197 5 9.271.539A.898.898 0 0 0 8.444 0a.896.896 0 0 0-.825.54L5.692 4.998l-4.876.437a.897.897 0 0 0-.772.61.882.882 0 0 0 .262.943l3.685 3.194-1.086 4.732a.882.882 0 0 0 .349.916.9.9 0 0 0 .986.043l4.204-2.485 4.204 2.485a.906.906 0 0 0 .987-.043.882.882 0 0 0 .35-.916l-1.087-4.732 3.685-3.194a.882.882 0 0 0 .262-.944Zm103.111 0a.895.895 0 0 0-.772-.609L114.309 5 112.382.54a.899.899 0 0 0-.826-.539.896.896 0 0 0-.826.54L108.803 5l-4.876.437a.898.898 0 0 0-.772.61.883.883 0 0 0 .262.943l3.685 3.194-1.086 4.732a.881.881 0 0 0 .349.916.9.9 0 0 0 .987.043l4.204-2.485 4.203 2.485a.905.905 0 0 0 .987-.043.881.881 0 0 0 .349-.916l-1.086-4.732 3.685-3.194a.883.883 0 0 0 .262-.944Zm-77.333 0a.894.894 0 0 0-.772-.609L36.975 5 35.048.539A.898.898 0 0 0 34.222 0a.896.896 0 0 0-.825.54L31.47 4.998l-4.876.437a.897.897 0 0 0-.772.61.882.882 0 0 0 .262.943l3.685 3.194-1.086 4.732a.882.882 0 0 0 .349.916.9.9 0 0 0 .986.043l4.204-2.485 4.203 2.485a.906.906 0 0 0 .988-.043.882.882 0 0 0 .349-.916l-1.087-4.732 3.686-3.194a.882.882 0 0 0 .262-.944Zm25.777 0a.894.894 0 0 0-.772-.609L62.753 5 60.826.539A.898.898 0 0 0 60 0a.896.896 0 0 0-.825.54l-1.927 4.459-4.876.437a.897.897 0 0 0-.772.61.882.882 0 0 0 .262.943l3.685 3.194-1.087 4.732a.882.882 0 0 0 .35.916.9.9 0 0 0 .986.043L60 13.39l4.203 2.485a.906.906 0 0 0 .988-.043.882.882 0 0 0 .349-.916l-1.087-4.732 3.685-3.194a.882.882 0 0 0 .262-.944Zm25.778 0a.894.894 0 0 0-.772-.609L88.531 5 86.604.539A.898.898 0 0 0 85.778 0a.896.896 0 0 0-.826.54l-1.926 4.459-4.876.437a.897.897 0 0 0-.772.61.882.882 0 0 0 .261.943l3.686 3.194-1.087 4.732a.882.882 0 0 0 .35.916.9.9 0 0 0 .986.043l4.204-2.485 4.203 2.485a.906.906 0 0 0 .988-.043.882.882 0 0 0 .349-.916l-1.087-4.732 3.685-3.194a.882.882 0 0 0 .262-.944Z"/></svg><svg viewBox="0 0 35 35" id="twitter" xmlns="http://www.w3.org/2000/svg"><path d="M17.5 0C7.85 0 0 7.85 0 17.5 0 27.149 7.85 35 17.5 35 27.149 35 35 27.149 35 17.5 35 7.85 27.15 0 17.5 0Zm7.807 13.495c.008.173.012.348.012.523 0 5.322-4.05 11.458-11.461 11.458-2.275 0-4.393-.665-6.175-1.808.316.037.636.056.961.056A8.084 8.084 0 0 0 13.647 22a4.032 4.032 0 0 1-3.763-2.798 4.054 4.054 0 0 0 1.819-.067 4.029 4.029 0 0 1-3.23-3.95v-.05a4.01 4.01 0 0 0 1.824.503 4.025 4.025 0 0 1-1.792-3.352c0-.739.198-1.431.545-2.026a11.437 11.437 0 0 0 8.302 4.21 4.028 4.028 0 0 1 6.864-3.675 8.038 8.038 0 0 0 2.558-.978 4.046 4.046 0 0 1-1.773 2.23 8.003 8.003 0 0 0 2.313-.635 8.1 8.1 0 0 1-2.007 2.083Z"/></svg><svg viewBox="0 0 18 22" id="user" xmlns="http://www.w3.org/2000/svg"><path d="M15.33 11.146a.818.818 0 0 0-.582-.243.826.826 0 0 0-.584.24.806.806 0 0 0-.168.89.807.807 0 0 0 .184.262 7.216 7.216 0 0 1 1.62 2.366c.375.887.566 1.84.564 2.8 0 .988-2.869 2.424-7.364 2.424-4.495 0-7.364-1.436-7.364-2.425a7.14 7.14 0 0 1 .557-2.783 7.215 7.215 0 0 1 1.6-2.356.807.807 0 0 0 .246-.573.798.798 0 0 0-.24-.577.82.82 0 0 0-.583-.236.827.827 0 0 0-.58.244 8.819 8.819 0 0 0-1.956 2.88A8.727 8.727 0 0 0 0 17.462C0 20.085 4.637 21.5 9 21.5s9-1.415 9-4.038a8.722 8.722 0 0 0-.69-3.424 8.814 8.814 0 0 0-1.98-2.892Z"/><path d="M9 11.808a5.78 5.78 0 0 0 3.182-.953 5.67 5.67 0 0 0 2.11-2.538 5.586 5.586 0 0 0 .325-3.266 5.632 5.632 0 0 0-1.567-2.895A5.75 5.75 0 0 0 10.117.609 5.796 5.796 0 0 0 6.808.93a5.712 5.712 0 0 0-2.57 2.083 5.602 5.602 0 0 0-.965 3.14 5.624 5.624 0 0 0 1.68 3.997A5.772 5.772 0 0 0 9 11.808Zm0-9.693c.81 0 1.6.237 2.273.681a4.05 4.05 0 0 1 1.507 1.812c.31.738.39 1.55.232 2.334a4.023 4.023 0 0 1-1.12 2.067 4.108 4.108 0 0 1-2.094 1.106 4.14 4.14 0 0 1-2.364-.23A4.08 4.08 0 0 1 5.6 8.398a4.002 4.002 0 0 1-.69-2.244A4.017 4.017 0 0 1 6.11 3.3 4.123 4.123 0 0 1 9 2.115Z"/></svg></svg>